<svg width="102" height="23" viewBox="0 0 102 23" fill="none" xmlns="http://www.w3.org/2000/svg">
<rect width="102" height="19" fill="#D9D9D9"/>
<g filter="url(#filter0_d_1286_38)">
<path d="M13.2196 12.14H9.57156L8.89956 14H7.74756L10.7716 5.684H12.0316L15.0436 14H13.8916L13.2196 12.14ZM12.9076 11.252L11.3956 7.028L9.88356 11.252H12.9076ZM15.9535 10.688C15.9535 10.016 16.0895 9.428 16.3615 8.924C16.6335 8.412 17.0055 8.016 17.4775 7.736C17.9575 7.456 18.4935 7.316 19.0855 7.316C19.5975 7.316 20.0735 7.436 20.5135 7.676C20.9535 7.908 21.2895 8.216 21.5215 8.6V5.12H22.6255V14H21.5215V12.764C21.3055 13.156 20.9855 13.48 20.5615 13.736C20.1375 13.984 19.6415 14.108 19.0735 14.108C18.4895 14.108 17.9575 13.964 17.4775 13.676C17.0055 13.388 16.6335 12.984 16.3615 12.464C16.0895 11.944 15.9535 11.352 15.9535 10.688ZM21.5215 10.7C21.5215 10.204 21.4215 9.772 21.2215 9.404C21.0215 9.036 20.7495 8.756 20.4055 8.564C20.0695 8.364 19.6975 8.264 19.2895 8.264C18.8815 8.264 18.5095 8.36 18.1735 8.552C17.8375 8.744 17.5695 9.024 17.3695 9.392C17.1695 9.76 17.0695 10.192 17.0695 10.688C17.0695 11.192 17.1695 11.632 17.3695 12.008C17.5695 12.376 17.8375 12.66 18.1735 12.86C18.5095 13.052 18.8815 13.148 19.2895 13.148C19.6975 13.148 20.0695 13.052 20.4055 12.86C20.7495 12.66 21.0215 12.376 21.2215 12.008C21.4215 11.632 21.5215 11.196 21.5215 10.7ZM25.0349 6.356C24.8269 6.356 24.6509 6.284 24.5069 6.14C24.3629 5.996 24.2909 5.82 24.2909 5.612C24.2909 5.404 24.3629 5.228 24.5069 5.084C24.6509 4.94 24.8269 4.868 25.0349 4.868C25.2349 4.868 25.4029 4.94 25.5389 5.084C25.6829 5.228 25.7549 5.404 25.7549 5.612C25.7549 5.82 25.6829 5.996 25.5389 6.14C25.4029 6.284 25.2349 6.356 25.0349 6.356ZM25.5629 7.424V14H24.4709V7.424H25.5629ZM27.016 10.7C27.016 10.02 27.152 9.428 27.424 8.924C27.696 8.412 28.072 8.016 28.552 7.736C29.04 7.456 29.596 7.316 30.22 7.316C31.028 7.316 31.692 7.512 32.212 7.904C32.74 8.296 33.088 8.84 33.256 9.536H32.08C31.968 9.136 31.748 8.82 31.42 8.588C31.1 8.356 30.7 8.24 30.22 8.24C29.596 8.24 29.092 8.456 28.708 8.888C28.324 9.312 28.132 9.916 28.132 10.7C28.132 11.492 28.324 12.104 28.708 12.536C29.092 12.968 29.596 13.184 30.22 13.184C30.7 13.184 31.1 13.072 31.42 12.848C31.74 12.624 31.96 12.304 32.08 11.888H33.256C33.08 12.56 32.728 13.1 32.2 13.508C31.672 13.908 31.012 14.108 30.22 14.108C29.596 14.108 29.04 13.968 28.552 13.688C28.072 13.408 27.696 13.012 27.424 12.5C27.152 11.988 27.016 11.388 27.016 10.7ZM35.2771 6.356C35.0691 6.356 34.8931 6.284 34.7491 6.14C34.6051 5.996 34.5331 5.82 34.5331 5.612C34.5331 5.404 34.6051 5.228 34.7491 5.084C34.8931 4.94 35.0691 4.868 35.2771 4.868C35.4771 4.868 35.6451 4.94 35.7811 5.084C35.9251 5.228 35.9971 5.404 35.9971 5.612C35.9971 5.82 35.9251 5.996 35.7811 6.14C35.6451 6.284 35.4771 6.356 35.2771 6.356ZM35.8051 7.424V14H34.7131V7.424H35.8051ZM40.5342 14.108C39.9182 14.108 39.3582 13.968 38.8542 13.688C38.3582 13.408 37.9662 13.012 37.6782 12.5C37.3982 11.98 37.2582 11.38 37.2582 10.7C37.2582 10.028 37.4022 9.436 37.6902 8.924C37.9862 8.404 38.3862 8.008 38.8902 7.736C39.3942 7.456 39.9582 7.316 40.5822 7.316C41.2062 7.316 41.7702 7.456 42.2742 7.736C42.7782 8.008 43.1742 8.4 43.4622 8.912C43.7582 9.424 43.9062 10.02 43.9062 10.7C43.9062 11.38 43.7542 11.98 43.4502 12.5C43.1542 13.012 42.7502 13.408 42.2382 13.688C41.7262 13.968 41.1582 14.108 40.5342 14.108ZM40.5342 13.148C40.9262 13.148 41.2942 13.056 41.6382 12.872C41.9822 12.688 42.2582 12.412 42.4662 12.044C42.6822 11.676 42.7902 11.228 42.7902 10.7C42.7902 10.172 42.6862 9.724 42.4782 9.356C42.2702 8.988 41.9982 8.716 41.6622 8.54C41.3262 8.356 40.9622 8.264 40.5702 8.264C40.1702 8.264 39.8022 8.356 39.4662 8.54C39.1382 8.716 38.8742 8.988 38.6742 9.356C38.4742 9.724 38.3742 10.172 38.3742 10.7C38.3742 11.236 38.4702 11.688 38.6622 12.056C38.8622 12.424 39.1262 12.7 39.4542 12.884C39.7822 13.06 40.1422 13.148 40.5342 13.148ZM48.546 7.304C49.346 7.304 49.994 7.548 50.49 8.036C50.986 8.516 51.234 9.212 51.234 10.124V14H50.154V10.28C50.154 9.624 49.99 9.124 49.662 8.78C49.334 8.428 48.886 8.252 48.318 8.252C47.742 8.252 47.282 8.432 46.938 8.792C46.602 9.152 46.434 9.676 46.434 10.364V14H45.342V7.424H46.434V8.36C46.65 8.024 46.942 7.764 47.31 7.58C47.686 7.396 48.098 7.304 48.546 7.304ZM52.6098 10.688C52.6098 10.016 52.7458 9.428 53.0178 8.924C53.2898 8.412 53.6618 8.016 54.1338 7.736C54.6138 7.456 55.1458 7.316 55.7298 7.316C56.3058 7.316 56.8058 7.44 57.2298 7.688C57.6538 7.936 57.9698 8.248 58.1778 8.624V7.424H59.2818V14H58.1778V12.776C57.9618 13.16 57.6378 13.48 57.2058 13.736C56.7818 13.984 56.2858 14.108 55.7178 14.108C55.1338 14.108 54.6058 13.964 54.1338 13.676C53.6618 13.388 53.2898 12.984 53.0178 12.464C52.7458 11.944 52.6098 11.352 52.6098 10.688ZM58.1778 10.7C58.1778 10.204 58.0778 9.772 57.8778 9.404C57.6778 9.036 57.4058 8.756 57.0618 8.564C56.7258 8.364 56.3538 8.264 55.9458 8.264C55.5378 8.264 55.1658 8.36 54.8298 8.552C54.4938 8.744 54.2258 9.024 54.0258 9.392C53.8258 9.76 53.7258 10.192 53.7258 10.688C53.7258 11.192 53.8258 11.632 54.0258 12.008C54.2258 12.376 54.4938 12.66 54.8298 12.86C55.1658 13.052 55.5378 13.148 55.9458 13.148C56.3538 13.148 56.7258 13.052 57.0618 12.86C57.4058 12.66 57.6778 12.376 57.8778 12.008C58.0778 11.632 58.1778 11.196 58.1778 10.7ZM62.2191 8.492C62.4111 8.116 62.6831 7.824 63.0351 7.616C63.3951 7.408 63.8311 7.304 64.3431 7.304V8.432H64.0551C62.8311 8.432 62.2191 9.096 62.2191 10.424V14H61.1271V7.424H62.2191V8.492ZM73.5309 5.636V6.524H69.8949V9.344H72.8469V10.232H69.8949V14H68.8029V5.636H73.5309ZM77.7178 14.108C77.1018 14.108 76.5418 13.968 76.0378 13.688C75.5418 13.408 75.1498 13.012 74.8618 12.5C74.5818 11.98 74.4418 11.38 74.4418 10.7C74.4418 10.028 74.5858 9.436 74.8738 8.924C75.1698 8.404 75.5698 8.008 76.0738 7.736C76.5778 7.456 77.1418 7.316 77.7658 7.316C78.3898 7.316 78.9538 7.456 79.4578 7.736C79.9618 8.008 80.3578 8.4 80.6458 8.912C80.9418 9.424 81.0898 10.02 81.0898 10.7C81.0898 11.38 80.9378 11.98 80.6338 12.5C80.3378 13.012 79.9338 13.408 79.4218 13.688C78.9098 13.968 78.3418 14.108 77.7178 14.108ZM77.7178 13.148C78.1098 13.148 78.4778 13.056 78.8218 12.872C79.1658 12.688 79.4418 12.412 79.6498 12.044C79.8658 11.676 79.9738 11.228 79.9738 10.7C79.9738 10.172 79.8698 9.724 79.6618 9.356C79.4538 8.988 79.1818 8.716 78.8458 8.54C78.5098 8.356 78.1458 8.264 77.7538 8.264C77.3538 8.264 76.9858 8.356 76.6498 8.54C76.3218 8.716 76.0578 8.988 75.8578 9.356C75.6578 9.724 75.5578 10.172 75.5578 10.7C75.5578 11.236 75.6538 11.688 75.8458 12.056C76.0458 12.424 76.3098 12.7 76.6378 12.884C76.9658 13.06 77.3258 13.148 77.7178 13.148ZM83.8576 8.324V12.2C83.8576 12.52 83.9256 12.748 84.0616 12.884C84.1976 13.012 84.4336 13.076 84.7696 13.076H85.5736V14H84.5896C83.9816 14 83.5256 13.86 83.2216 13.58C82.9176 13.3 82.7656 12.84 82.7656 12.2V8.324H81.9136V7.424H82.7656V5.768H83.8576V7.424H85.5736V8.324H83.8576ZM89.7647 14.108C89.1487 14.108 88.5887 13.968 88.0847 13.688C87.5887 13.408 87.1967 13.012 86.9087 12.5C86.6287 11.98 86.4887 11.38 86.4887 10.7C86.4887 10.028 86.6327 9.436 86.9207 8.924C87.2167 8.404 87.6167 8.008 88.1207 7.736C88.6247 7.456 89.1887 7.316 89.8127 7.316C90.4367 7.316 91.0007 7.456 91.5047 7.736C92.0087 8.008 92.4047 8.4 92.6927 8.912C92.9887 9.424 93.1367 10.02 93.1367 10.7C93.1367 11.38 92.9847 11.98 92.6807 12.5C92.3847 13.012 91.9807 13.408 91.4687 13.688C90.9567 13.968 90.3887 14.108 89.7647 14.108ZM89.7647 13.148C90.1567 13.148 90.5247 13.056 90.8687 12.872C91.2127 12.688 91.4887 12.412 91.6967 12.044C91.9127 11.676 92.0207 11.228 92.0207 10.7C92.0207 10.172 91.9167 9.724 91.7087 9.356C91.5007 8.988 91.2287 8.716 90.8927 8.54C90.5567 8.356 90.1927 8.264 89.8007 8.264C89.4007 8.264 89.0327 8.356 88.6967 8.54C88.3687 8.716 88.1047 8.988 87.9047 9.356C87.7047 9.724 87.6047 10.172 87.6047 10.7C87.6047 11.236 87.7007 11.688 87.8927 12.056C88.0927 12.424 88.3567 12.7 88.6847 12.884C89.0127 13.06 89.3727 13.148 89.7647 13.148Z" fill="white"/>
</g>
<defs>
<filter id="filter0_d_1286_38" x="3.74757" y="4.86792" width="93.3891" height="17.24" filterUnits="userSpaceOnUse" color-interpolation-filters="sRGB">
<feFlood flood-opacity="0" result="BackgroundImageFix"/>
<feColorMatrix in="SourceAlpha" type="matrix" values="0 0 0 0 0 0 0 0 0 0 0 0 0 0 0 0 0 0 127 0" result="hardAlpha"/>
<feOffset dy="4"/>
<feGaussianBlur stdDeviation="2"/>
<feComposite in2="hardAlpha" operator="out"/>
<feColorMatrix type="matrix" values="0 0 0 0 0 0 0 0 0 0 0 0 0 0 0 0 0 0 0.25 0"/>
<feBlend mode="normal" in2="BackgroundImageFix" result="effect1_dropShadow_1286_38"/>
<feBlend mode="normal" in="SourceGraphic" in2="effect1_dropShadow_1286_38" result="shape"/>
</filter>
</defs>
</svg>
