<svg width="11" height="7" viewBox="0 0 11 7" fill="none" xmlns="http://www.w3.org/2000/svg">
<path d="M1.12475 1.06457C1.25368 0.930525 1.42851 0.855225 1.61082 0.855225C1.79312 0.855225 1.96795 0.930525 2.09688 1.06457L5.5 4.60382L8.90313 1.06457C9.03279 0.934324 9.20646 0.862256 9.38672 0.863885C9.56698 0.865514 9.73941 0.94071 9.86688 1.07328C9.99435 1.20584 10.0666 1.38517 10.0682 1.57264C10.0698 1.76012 10.0005 1.94073 9.87525 2.07558L5.98606 6.12033C5.85714 6.25437 5.6823 6.32967 5.5 6.32967C5.3177 6.32967 5.14287 6.25437 5.01394 6.12033L1.12475 2.07558C0.995866 1.94149 0.923462 1.75966 0.923462 1.57007C0.923462 1.38048 0.995866 1.19865 1.12475 1.06457Z" fill="white"/>
</svg>
