<svg width="107" height="107" viewBox="0 0 107 20" fill="none" xmlns="http://www.w3.org/2000/svg">
<path d="M14.24 17.704C13.952 17.896 13.56 18.112 13.064 18.352C12.568 18.592 11.984 18.792 11.312 18.952C10.656 19.112 9.936 19.192 9.152 19.192C7.808 19.176 6.592 18.936 5.504 18.472C4.432 18.008 3.52 17.376 2.768 16.576C2.016 15.776 1.432 14.856 1.016 13.816C0.616 12.76 0.416 11.64 0.416 10.456C0.416 9.16 0.624 7.968 1.04 6.88C1.472 5.776 2.072 4.824 2.84 4.024C3.608 3.208 4.512 2.576 5.552 2.128C6.608 1.68 7.76 1.456 9.008 1.456C10.048 1.456 10.992 1.6 11.84 1.888C12.688 2.16 13.416 2.488 14.024 2.872L13.088 5.032C12.608 4.712 12.024 4.408 11.336 4.12C10.664 3.832 9.912 3.688 9.08 3.688C8.232 3.688 7.432 3.856 6.68 4.192C5.928 4.528 5.264 5 4.688 5.608C4.112 6.216 3.656 6.928 3.32 7.744C3 8.544 2.84 9.408 2.84 10.336C2.84 11.28 2.984 12.16 3.272 12.976C3.576 13.776 4 14.472 4.544 15.064C5.104 15.656 5.776 16.12 6.56 16.456C7.344 16.792 8.224 16.96 9.2 16.96C10.08 16.96 10.864 16.824 11.552 16.552C12.24 16.28 12.808 15.976 13.256 15.64L14.24 17.704ZM22.7921 1.648C24.0561 1.648 25.1361 1.864 26.0321 2.296C26.9281 2.712 27.6161 3.32 28.0961 4.12C28.5921 4.92 28.8401 5.888 28.8401 7.024C28.8401 7.712 28.7361 8.392 28.5281 9.064C28.3201 9.72 27.9841 10.32 27.5201 10.864C27.0721 11.392 26.4801 11.816 25.7441 12.136C25.0081 12.456 24.1121 12.616 23.0561 12.616H20.4881V19H18.1601V1.648H22.7921ZM23.0321 10.384C23.7201 10.384 24.2881 10.272 24.7361 10.048C25.1841 9.824 25.5361 9.544 25.7921 9.208C26.0481 8.856 26.2321 8.488 26.3441 8.104C26.4561 7.72 26.5121 7.376 26.5121 7.072C26.5121 6.72 26.4561 6.36 26.3441 5.992C26.2321 5.608 26.0401 5.264 25.7681 4.96C25.5121 4.64 25.1681 4.384 24.7361 4.192C24.3201 3.984 23.8001 3.88 23.1761 3.88H20.4881V10.384H23.0321ZM41.4095 4.744C40.8175 4.44 40.1695 4.176 39.4655 3.952C38.7615 3.728 38.0735 3.616 37.4015 3.616C36.4735 3.616 35.7295 3.832 35.1695 4.264C34.6255 4.696 34.3535 5.272 34.3535 5.992C34.3535 6.536 34.5295 7 34.8815 7.384C35.2335 7.752 35.6975 8.072 36.2735 8.344C36.8495 8.616 37.4495 8.872 38.0735 9.112C38.6175 9.32 39.1535 9.552 39.6815 9.808C40.2095 10.064 40.6815 10.384 41.0975 10.768C41.5295 11.152 41.8655 11.624 42.1055 12.184C42.3615 12.744 42.4895 13.44 42.4895 14.272C42.4895 15.184 42.2575 16.016 41.7935 16.768C41.3455 17.52 40.6975 18.112 39.8495 18.544C39.0015 18.976 37.9935 19.192 36.8255 19.192C36.0575 19.192 35.3215 19.104 34.6175 18.928C33.9295 18.752 33.2895 18.528 32.6975 18.256C32.1055 17.968 31.5775 17.672 31.1135 17.368L32.1455 15.544C32.5295 15.816 32.9695 16.08 33.4655 16.336C33.9615 16.576 34.4815 16.776 35.0255 16.936C35.5695 17.08 36.0975 17.152 36.6095 17.152C37.1535 17.152 37.6895 17.056 38.2175 16.864C38.7615 16.656 39.2095 16.344 39.5615 15.928C39.9135 15.512 40.0895 14.96 40.0895 14.272C40.0895 13.68 39.9295 13.192 39.6095 12.808C39.3055 12.408 38.8975 12.072 38.3855 11.8C37.8735 11.512 37.3295 11.256 36.7535 11.032C36.2095 10.824 35.6575 10.6 35.0975 10.36C34.5375 10.104 34.0175 9.8 33.5375 9.448C33.0575 9.08 32.6735 8.632 32.3855 8.104C32.0975 7.576 31.9535 6.936 31.9535 6.184C31.9535 5.272 32.1695 4.48 32.6015 3.808C33.0495 3.12 33.6575 2.584 34.4255 2.2C35.1935 1.8 36.0735 1.584 37.0655 1.552C38.1855 1.552 39.1695 1.688 40.0175 1.96C40.8815 2.232 41.6415 2.568 42.2975 2.968L41.4095 4.744ZM46.4023 1.648H48.7303V19H46.4023V1.648Z" fill="#FFFFFF  "/>
<path d="M59.7965 1.744H62.4845L67.1885 14.992L66.7805 14.824L70.2125 5.944L71.2925 9.088L66.7085 19.792L59.7965 1.744ZM68.1245 1.744H70.4525L75.5405 14.8L75.0605 14.704L79.5485 1.744H82.0205L75.2045 19.768L68.1245 1.744ZM87.3254 19.24C86.1894 19.24 85.2134 19.016 84.3974 18.568C83.5814 18.104 82.9494 17.48 82.5014 16.696C82.0694 15.896 81.8534 14.984 81.8534 13.96C81.8534 12.984 82.1014 12.096 82.5974 11.296C83.0934 10.496 83.7574 9.856 84.5894 9.376C85.4214 8.896 86.3494 8.656 87.3734 8.656C88.6854 8.656 89.7734 9.04 90.6374 9.808C91.5014 10.576 92.0854 11.632 92.3894 12.976L84.2054 15.856L83.6774 14.536L90.3974 12.088L89.9174 12.4C89.7254 11.872 89.4054 11.416 88.9574 11.032C88.5094 10.632 87.9254 10.432 87.2054 10.432C86.5974 10.432 86.0534 10.584 85.5734 10.888C85.0934 11.176 84.7174 11.576 84.4454 12.088C84.1734 12.6 84.0374 13.184 84.0374 13.84C84.0374 14.528 84.1814 15.136 84.4694 15.664C84.7574 16.176 85.1494 16.584 85.6454 16.888C86.1574 17.176 86.7334 17.32 87.3734 17.32C87.8054 17.32 88.2214 17.24 88.6214 17.08C89.0374 16.92 89.4214 16.712 89.7734 16.456L90.8054 18.112C90.3094 18.448 89.7494 18.72 89.1254 18.928C88.5174 19.136 87.9174 19.24 87.3254 19.24ZM101.234 19.24C100.322 19.24 99.5142 19.04 98.8102 18.64C98.1222 18.24 97.5702 17.736 97.1542 17.128L97.4182 16.432V19H95.1862V0.423999H97.3942V11.344L97.3222 10.504C97.7222 9.96 98.2902 9.52 99.0262 9.184C99.7782 8.832 100.61 8.656 101.522 8.656C102.418 8.656 103.234 8.872 103.97 9.304C104.706 9.736 105.29 10.344 105.722 11.128C106.17 11.896 106.394 12.816 106.394 13.888C106.394 15.008 106.154 15.968 105.674 16.768C105.21 17.568 104.586 18.184 103.802 18.616C103.018 19.032 102.162 19.24 101.234 19.24ZM100.778 17.344C101.418 17.344 101.994 17.192 102.506 16.888C103.018 16.584 103.418 16.176 103.706 15.664C103.994 15.136 104.138 14.536 104.138 13.864C104.138 13.224 103.986 12.648 103.682 12.136C103.394 11.608 102.994 11.192 102.482 10.888C101.986 10.584 101.418 10.432 100.778 10.432C100.234 10.432 99.7302 10.536 99.2662 10.744C98.8022 10.952 98.4102 11.24 98.0902 11.608C97.7702 11.96 97.5462 12.376 97.4182 12.856V14.848C97.5462 15.328 97.7622 15.76 98.0662 16.144C98.3702 16.512 98.7542 16.808 99.2182 17.032C99.6822 17.24 100.202 17.344 100.778 17.344Z" fill="white"/>
</svg>
