<svg width="20" height="13" viewBox="0 0 20 13" fill="none" xmlns="http://www.w3.org/2000/svg">
<path d="M18.9444 5.41675H1.05556C0.472588 5.41675 0 5.87752 0 6.44591V6.55425C0 7.12264 0.472588 7.58341 1.05556 7.58341H18.9444C19.5274 7.58341 20 7.12264 20 6.55425V6.44591C20 5.87752 19.5274 5.41675 18.9444 5.41675Z" fill="white"/>
<path d="M18.9444 10.8333H1.05556C0.472588 10.8333 0 11.294 0 11.8624V11.9708C0 12.5391 0.472588 12.9999 1.05556 12.9999H18.9444C19.5274 12.9999 20 12.5391 20 11.9708V11.8624C20 11.294 19.5274 10.8333 18.9444 10.8333Z" fill="white"/>
<path d="M18.9444 0H1.05556C0.472588 0 0 0.460773 0 1.02917V1.1375C0 1.70589 0.472588 2.16667 1.05556 2.16667H18.9444C19.5274 2.16667 20 1.70589 20 1.1375V1.02917C20 0.460773 19.5274 0 18.9444 0Z" fill="white"/>
</svg>
