<svg width="23" height="28" viewBox="0 0 23 28" fill="black" xmlns="http://www.w3.org/2000/svg">
<path d="M15.3005 23.1002C15.3005 24.1345 14.8896 25.1265 14.1582 25.8579C13.4268 26.5893 12.4348 27.0002 11.4005 27.0002C10.3661 27.0002 9.37414 26.5893 8.64274 25.8579C7.91135 25.1265 7.50046 24.1345 7.50046 23.1002M12.3378 4.90407L10.432 4.90017C6.08476 4.88977 2.31086 8.42187 2.28096 12.7002V17.6272C2.28096 18.6542 2.15096 19.6565 1.59066 20.5106L1.21756 21.08C0.64946 21.9432 1.26046 23.1002 2.28096 23.1002H20.52C21.5405 23.1002 22.1502 21.9432 21.5834 21.08L21.2103 20.5106C20.6513 19.6565 20.52 18.6529 20.52 17.6259V12.7015C20.468 8.42187 16.685 4.91447 12.3378 4.90407V4.90407Z" stroke="white" stroke-width="2" stroke-linecap="round" stroke-linejoin="round"/>
<path d="M11.4005 1C12.09 1 12.7514 1.27393 13.239 1.76152C13.7265 2.24912 14.0005 2.91044 14.0005 3.6V4.9H8.80048V3.6C8.80048 2.91044 9.0744 2.24912 9.562 1.76152C10.0496 1.27393 10.7109 1 11.4005 1Z" stroke="white" stroke-width="2" stroke-linecap="round" stroke-linejoin="round"/>
</svg>
